<?xml version="1.0" encoding="UTF-8"?>
<svg xmlns="http://www.w3.org/2000/svg" width="512" height="512" viewBox="0 0 512 512">
  <path d="M 176 375 L 390 376 L 417 355 L 434 337 L 434 334 L 234 333 L 180 367 L 176 372 Z M 447 246 L 411 249 L 362 264 L 323 282 L 314 284 L 309 289 L 282 303 L 255 320 L 257 322 L 272 323 L 441 323 L 446 319 L 449 313 L 429 313 L 428 310 L 434 300 L 444 273 Z M 339 193 L 337 192 L 304 206 L 295 207 L 292 202 L 290 191 L 278 165 L 265 144 L 254 132 L 243 146 L 232 165 L 224 182 L 216 207 L 194 202 L 174 193 L 172 194 L 170 209 L 171 237 L 176 260 L 182 273 L 181 278 L 146 267 L 104 260 L 78 260 L 65 263 L 65 270 L 73 296 L 87 321 L 89 328 L 85 330 L 63 331 L 63 335 L 85 358 L 109 377 L 146 376 L 152 378 L 165 368 L 253 312 L 332 267 L 340 237 L 341 215 Z" fill="#ffffff" fill-rule="evenodd"/>
</svg>
